<svg width="71" height="48" viewBox="0 0 71 48" fill="none" xmlns="http://www.w3.org/2000/svg">
<mask id="mask0_40_373" style="mask-type:luminance" maskUnits="userSpaceOnUse" x="0" y="0" width="71" height="48">
<path d="M70.8571 0H0V48H70.8571V0Z" fill="white"/>
</mask>
<g mask="url(#mask0_40_373)">
<path d="M-17.7143 22.3494C-12.7536 20.5866 -8.88138 15.0178 -3.3285 14.6399C-0.95819 14.4786 0.0800723 15.4382 0.110093 17.7927L1.59508 17.8508C2.08807 18.0115 3.66327 18.0035 3.83577 18.1366L3.81224 18.2541C3.71787 18.3067 3.69322 18.3446 3.60898 18.334C2.90784 18.2457 0.63032 18.1222 0.0320279 18.2502C-0.345383 19.6037 -1.20272 21.1747 -2.46691 21.865C-2.93843 22.1223 -3.82366 22.3966 -4.27259 22.1789C-6.44904 21.1235 -4.73986 19.1318 -3.28872 18.506C-1.93661 17.9229 -1.64455 17.8902 -0.323913 17.798C-0.186467 16.0613 -0.94255 15.0543 -2.72198 15.0269C-7.14403 14.9587 -10.681 18.6955 -14.1659 20.9404C-15.3043 21.6828 -16.7077 22.2389 -17.7143 22.9205V22.3494Z" fill="#040403"/>
<path d="M1.5951 17.8508C2.46855 17.838 8.54988 18.372 8.78381 18.2316C9.02761 18.4372 9.12166 18.7076 9.25121 18.8147C7.09557 18.8326 4.7751 18.6101 2.62336 18.4296C1.90849 18.3696 0.655584 18.3376 0.0320435 18.2502C0.630335 18.1222 2.90785 18.2457 3.609 18.334C3.69323 18.3446 3.71789 18.3067 3.81225 18.2541L3.83579 18.1366C3.66328 18.0035 2.08809 18.0114 1.5951 17.8508Z" fill="#343132"/>
<path d="M64.9229 0.368289C65.31 -0.0472672 66.2153 -0.168841 66.5156 0.306905C67.2649 1.49405 67.0428 4.00277 67.0434 5.3616L67.0479 11.2678L67.0602 17.5368C67.0622 18.6941 67.0958 20.0285 67.0189 21.1841C66.9207 22.6725 65.9929 24.5768 65.2879 25.9084C65.0844 26.2797 64.4489 26.9173 64.4006 27.3259C64.2482 28.5984 64.2018 29.8873 64.1137 31.1763C63.8466 35.0637 63.4114 38.9819 63.4486 42.8794C63.4552 43.5706 63.5724 44.322 64.0189 44.8404C64.5749 45.5421 65.5989 45.6737 66.2868 45.0792C66.9481 44.5073 67.1913 43.509 67.2198 42.6663C67.2741 41.0545 67.0647 39.357 66.9162 37.7555C66.7572 35.9498 66.6172 34.1424 66.4966 32.3337C66.423 31.2805 66.2369 29.7501 66.4888 28.7578C66.6912 27.9576 67.7792 26.5805 68.4285 26.0301C70.1064 24.6085 72.3544 23.204 74.6327 23.2477C75.0985 23.2567 75.6217 23.4515 75.9352 23.8002C76.0504 23.9287 76.1088 24.153 76.0802 24.3616C75.8224 26.2635 71.4781 29.3579 72.606 31.2266C72.8202 31.58 73.6486 31.7405 74.1137 31.7868C75.97 31.9713 77.8932 31.0394 79.5546 30.2533C79.2737 29.9369 78.9929 29.509 79.0636 29.0859C79.3319 27.4802 81.8716 25.5473 83.5322 25.6685C83.9724 25.7008 84.5869 25.8888 84.4888 26.4409C84.2773 27.4689 83.2748 28.3112 82.4954 28.9397C81.893 29.4012 81.0826 29.921 80.4352 30.2835C83.8792 30.4815 85.4717 29.6661 88.7209 28.7545C90.1826 28.3444 92.3833 28.0461 93.8849 27.8471V28.241C89.9044 28.5433 86.3088 30.2325 82.3872 30.7154C81.9472 30.88 80.1794 30.4803 79.9196 30.5826C77.9488 31.36 75.7893 32.6435 73.5044 32.0882C69.2249 31.0477 75.19 26.3375 75.587 24.4643C75.7201 23.8328 75.1416 23.7028 74.6718 23.6484C72.4869 23.5743 70.4554 24.9103 68.8113 26.2087C68.183 26.705 66.8789 28.4012 66.8046 29.1585C66.5967 31.2885 67.107 33.5843 67.27 35.7243C67.4702 38.1331 67.6953 40.5457 67.6205 42.9643C67.5781 44.3473 66.6975 45.9827 65.1205 45.8315C64.5512 45.7756 64.0274 45.4954 63.6662 45.0513C62.8213 44.0272 63.0367 41.5122 63.0936 40.2187C63.1759 38.422 63.2951 36.6266 63.4508 34.8348C63.6344 32.526 63.7537 30.1329 63.9664 27.8393C63.1201 29.173 61.8311 30.4786 60.7198 31.6127C60.2989 32.042 59.3303 32.6906 58.9943 33.154C58.2053 34.2416 57.7464 35.6872 57.0401 36.8426C54.6557 40.7797 51.1532 43.9162 46.9798 45.8505C34.1041 51.9658 16.4132 44.597 15.4954 29.3058C15.2577 25.3429 16.646 20.04 19.9977 17.577C20.8862 16.9242 21.728 16.6427 22.7912 16.3917C22.9404 15.6939 23.1462 14.8111 23.4586 14.173C25.9977 8.98787 32.2294 6.67574 37.5546 6.76673C42.2765 6.855 46.7689 8.82106 50.0413 12.2311C53.2864 15.6065 55.0665 20.1308 54.991 24.8159C54.9154 28.4936 53.6866 32.0548 51.4798 34.9955C51.1181 35.4849 50.7157 36.0671 50.2856 36.481C52.7607 36.0952 54.5066 35.4545 56.6941 34.2276C57.115 33.9919 57.4286 33.7676 57.8024 33.4732C58.62 32.8291 58.8992 31.9565 59.1305 30.9855C59.4625 29.6575 59.6773 28.3156 59.7945 26.9543C60.3373 20.9469 58.4564 14.9714 54.5702 10.3627C50.7318 5.82218 45.2653 2.97318 39.3493 2.42856C34.3258 1.95829 29.2914 3.20216 25.0624 5.95757C24.4054 6.38747 23.8352 6.76413 23.2175 7.2578C17.2692 12.0117 13.7401 18.9842 13.1004 26.5468C12.6463 31.9165 13.8215 37.3906 13.6685 42.7601C13.5693 46.2439 9.66472 46.9627 9.05908 43.3348C8.70785 41.2225 9.19813 39.0939 9.30238 36.9765C9.40578 34.0765 10.9838 21.0162 9.28675 18.8594L9.25104 18.8147C9.12155 18.7075 9.02713 18.4377 8.7834 18.2321C8.13637 17.4602 7.87197 16.4825 7.89613 15.4899C7.9852 11.8417 7.99899 8.18241 8.1651 4.53793C8.17922 4.22896 8.34432 3.55272 8.55014 3.34262C8.98957 3.24003 9.19544 3.52931 9.39501 3.88949C9.44972 3.98336 9.00634 11.9056 9.57136 12.0257C9.99522 12.0257 9.75728 3.90576 9.84256 3.74329C9.90914 3.28717 9.89152 2.8233 10.4162 2.71092C10.6289 2.81073 10.6959 2.87708 10.7778 3.11717C11.2323 4.44994 10.6835 11.3906 11.2243 12.1887L11.3504 12.2009C12.1092 11.3836 11.0224 3.19445 12.1841 2.70088C12.3689 2.74806 12.5026 2.81082 12.5736 2.99776C12.9823 4.07553 12.6609 12.021 13.135 12.2845C13.7144 11.3722 13.0085 5.35256 13.4809 3.63949C13.6405 3.48017 13.8125 3.31814 13.953 3.14284C14.0646 3.30506 14.3855 3.75481 14.4073 3.92186C14.5522 5.05069 14.5446 6.36907 14.5825 7.51338L14.7254 11.9074C14.7648 13.2 14.8226 14.6272 14.6394 15.904C14.3311 18.0523 11.5376 18.6289 9.74881 18.7835C11.5602 22.0083 9.50232 35.2413 9.55461 39.4196C9.5912 41.0236 8.81989 44.5769 10.8381 45.289C12.0564 45.7191 13.0488 44.4324 13.0881 43.298C13.3951 34.4338 11.048 25.9064 14.9218 17.4152C17.6338 11.4705 22.1861 6.40574 28.28 3.80467C33.0829 1.73321 38.4466 1.35602 43.491 2.73659C44.4398 2.98953 45.2095 3.32086 46.1093 3.70422C50.7383 5.6275 54.6213 9.00154 57.1741 13.3203C60.5551 19.162 61.1588 26.1371 59.0792 32.5379C61.0666 30.8573 62.4245 29.3188 63.9832 27.2266C64.0263 25.9825 64.1335 24.8674 63.8202 23.644C63.5697 22.669 62.9073 22.454 62.5256 21.7845C61.2665 19.5755 61.7154 16.172 61.9229 13.7489C62.1402 11.2068 62.5127 8.92204 63.0781 6.45869C63.5305 4.46932 63.4565 1.94462 64.9229 0.368289ZM40.2041 7.41963C39.1885 7.21675 37.2741 7.07676 36.1985 7.18637C30.9442 7.49149 24.2825 10.529 23.251 16.2466C24.9806 16.1807 27.9574 16.3243 29.2957 17.5826C29.7925 18.0492 30.0794 18.6976 30.0926 19.3794C30.1046 20.1487 29.8079 20.8904 29.2689 21.4386C27.7752 22.9345 25.4461 22.5116 24.106 21.0714C23.0596 19.9465 22.7303 18.6746 22.7566 17.1741C22.759 17.0469 22.7662 16.9191 22.7778 16.7924C16.2391 18.3507 15.0925 27.4571 16.4933 32.9744C18.0284 39.0199 22.6666 43.5466 28.3404 45.8393C32.9897 47.7472 38.1261 48.1207 43.0022 46.9063C43.3629 46.8183 43.689 46.7245 44.0413 46.6082C49.6015 44.7722 53.8831 41.2896 56.9296 36.2656C56.9693 36.1993 57.0066 36.1321 57.0423 36.0636C57.3836 35.3386 57.7593 34.4657 58.1172 33.769C57.21 34.4187 56.8254 34.5612 55.9229 35.0602C53.6752 36.3035 52.2281 36.6057 49.75 36.9442C43.7341 43.2339 32.7453 44.1005 26.1428 38.2991C24.9252 37.3112 23.3049 34.053 24.7722 32.7745C26.2128 31.5195 30.6984 33.6301 32.366 34.0859C37.668 35.5341 44.0073 37.0348 49.5423 36.5625C50.3575 36.0439 50.5452 35.5602 51.1137 34.8325C52.7406 32.7489 53.6924 30.2804 54.2868 27.7009C55.1853 23.7977 54.1673 18.9781 52.1172 15.5981C49.4093 11.136 45.2669 8.43155 40.2041 7.41963ZM30.3493 33.8861C28.6889 33.3591 27.1825 32.621 25.3884 32.7901C24.1498 33.5783 24.6663 35.7332 25.3849 36.7131C29.7992 42.7287 40.0706 42.9274 45.9341 39.4386C47.4444 38.4967 47.9418 38.2637 49.1439 36.9553C42.6714 37.2213 36.4761 35.8313 30.3493 33.8861Z" fill="#040403"/>
<path d="M65.7481 0.312378C66.896 0.511085 66.5931 3.20948 66.5963 4.14943L66.612 9.25322L66.6298 17.3113C66.6359 21.247 66.8782 23.0352 64.3799 26.4497C64.4256 25.934 64.4324 25.5955 64.4244 25.0769C64.3906 23.0393 63.6614 22.7384 62.7124 21.1896C61.2191 18.7514 62.6556 11.3968 63.1075 8.5713C63.409 6.68792 63.6583 4.73213 64.1108 2.88046C64.364 1.8425 64.8006 0.890153 65.7481 0.312378Z" fill="#FEFEFE"/>
<path d="M10.3275 3.1461C10.3451 3.15997 10.3634 3.17304 10.3805 3.18757C10.7489 3.50187 10.589 10.2497 10.6259 11.2495C10.6411 11.66 10.644 12.2126 10.9648 12.5103C12.3189 12.9593 11.9282 10.5524 11.9704 9.75664C12.0869 7.55669 11.774 4.98724 12.2452 2.8316C12.4724 3.8056 12.417 5.18506 12.433 6.23005L12.51 10.3074C12.5222 10.9654 12.495 11.6929 12.6483 12.3311C12.7236 12.6447 13.1923 12.7249 13.4458 12.6029C13.5718 12.5423 13.7245 12.3642 13.7433 12.2245C13.8142 11.6945 13.7797 11.1468 13.7891 10.6126C13.8564 9.51662 13.6475 4.80036 13.9126 3.9435L13.9755 3.97966C14.1818 4.75576 14.149 6.13476 14.1728 6.98239L14.3068 11.194C14.3792 12.389 14.3418 13.5872 14.3721 14.7771C14.45 17.8499 11.8656 17.9515 9.477 18.3246C9.10887 17.8568 8.36213 17.0391 8.34278 16.4512C8.21448 12.5631 8.48294 8.62126 8.51488 4.72311C8.51694 4.47373 8.5168 3.92127 8.79647 3.88576C9.10052 4.46576 8.73358 9.32536 8.82416 10.3124C8.887 10.9967 8.38214 12.9981 9.75659 12.5955C10.1883 12.1965 10.0798 10.7251 10.0862 10.1391L10.1709 5.87542C10.1895 5.03741 10.1325 3.92558 10.3275 3.1461Z" fill="#FEFEFE"/>
<path d="M23.6573 16.6671C24.2349 16.6527 24.8128 16.6644 25.3894 16.7021C26.58 16.7805 28.3412 17.078 29.1718 18.0217C30.0807 19.0544 29.7488 20.5665 28.7462 21.4039C26.419 22.9254 24.0452 21.2108 23.3262 18.8663C23.1501 18.292 23.0492 17.3517 23.2694 16.8007C23.3083 16.7036 23.5492 16.689 23.6573 16.6671Z" fill="#FEFEFE"/>
</g>
</svg>
