<svg width="181" height="42" viewBox="0 0 181 42" fill="none" xmlns="http://www.w3.org/2000/svg">
<g clip-path="url(#clip0_6_220)">
<path d="M-15.5 19.5557C-11.1594 18.0132 -7.77117 13.1405 -2.9124 12.8099C-0.838382 12.6687 0.0700969 13.5084 0.096365 15.5686L1.39573 15.6194C1.8271 15.76 3.20539 15.753 3.35633 15.8695L3.33574 15.9723C3.25317 16.0183 3.2316 16.0515 3.15789 16.0422C2.54439 15.9649 0.551563 15.8569 0.0280577 15.9689C-0.302177 17.1532 -1.05235 18.5278 -2.15851 19.1318C-2.57109 19.357 -3.34567 19.597 -3.73848 19.4065C-5.64288 18.483 -4.14734 16.7403 -2.8776 16.1927C-1.6945 15.6825 -1.43895 15.6539 -0.28339 15.5732C-0.163125 14.0536 -0.824697 13.1725 -2.3817 13.1485C-6.25099 13.0888 -9.3458 16.3585 -12.3951 18.3228C-13.3912 18.9724 -14.6192 19.459 -15.5 20.0554V19.5557Z" fill="#040403"/>
<path d="M1.39575 15.6194C2.16002 15.6082 7.48118 16.0754 7.68587 15.9526C7.8992 16.1325 7.98149 16.3691 8.09485 16.4628C6.20866 16.4785 4.17825 16.2838 2.29548 16.1258C1.66997 16.0733 0.573674 16.0453 0.0280762 15.9689C0.551581 15.8569 2.54441 15.9649 3.15791 16.0422C3.23161 16.0515 3.25319 16.0183 3.33576 15.9723L3.35635 15.8695C3.20541 15.753 1.82712 15.7599 1.39575 15.6194Z" fill="#343132"/>
<path d="M56.8075 0.322177C57.1462 -0.041435 57.9384 -0.147812 58.2011 0.268466C58.8568 1.30722 58.6624 3.50235 58.663 4.69132L58.6669 9.85929L58.6777 15.3446C58.6794 16.3573 58.7088 17.5249 58.6415 18.536C58.5556 19.8384 57.7438 21.5046 57.1269 22.6698C56.9488 22.9947 56.3928 23.5526 56.3505 23.9101C56.2172 25.0235 56.1766 26.1513 56.0995 27.2792C55.8658 30.6807 55.485 34.1091 55.5175 37.5194C55.5233 38.1242 55.6258 38.7817 56.0165 39.2353C56.503 39.8493 57.399 39.9644 58.0009 39.4442C58.5796 38.9438 58.7924 38.0703 58.8173 37.3329C58.8648 35.9226 58.6816 34.4373 58.5517 33.036C58.4125 31.456 58.29 29.8745 58.1845 28.2919C58.1201 27.3704 57.9573 26.0313 58.1777 25.163C58.3548 24.4628 59.3068 23.2579 59.8749 22.7763C61.3431 21.5324 63.3101 20.3034 65.3036 20.3417C65.7112 20.3495 66.169 20.52 66.4433 20.8251C66.5441 20.9375 66.5952 21.1338 66.5702 21.3163C66.3446 22.9805 62.5433 25.6881 63.5302 27.3232C63.7177 27.6324 64.4425 27.7729 64.8495 27.8134C66.4737 27.9748 68.1565 27.1594 69.6103 26.4716C69.3645 26.1947 69.1188 25.8203 69.1806 25.4501C69.4154 24.0451 71.6376 22.3538 73.0907 22.4599C73.4758 22.4881 74.0135 22.6526 73.9277 23.1357C73.7426 24.0352 72.8654 24.7722 72.1835 25.3222C71.6564 25.726 70.9473 26.1808 70.3808 26.498C73.3943 26.6712 74.7877 25.9578 77.6308 25.1601C78.9098 24.8013 80.8354 24.5403 82.1493 24.3661V24.7108C78.6663 24.9753 75.5202 26.4534 72.0888 26.8759C71.7038 27.0199 70.157 26.6702 69.9296 26.7597C68.2052 27.4399 66.3156 28.563 64.3163 28.0771C60.5718 27.1667 65.7912 23.0452 66.1386 21.4062C66.2551 20.8536 65.7489 20.7399 65.3378 20.6923C63.426 20.6274 61.6485 21.7964 60.2099 22.9325C59.6601 23.3668 58.519 24.851 58.454 25.5136C58.2721 27.3774 58.7186 29.3862 58.8612 31.2587C59.0364 33.3664 59.2334 35.4774 59.1679 37.5937C59.1308 38.8038 58.3603 40.2348 56.9804 40.1025C56.4823 40.0536 56.024 39.8084 55.7079 39.4198C54.9686 38.5237 55.1571 36.3231 55.2069 35.1913C55.2789 33.6192 55.3832 32.0482 55.5194 30.4804C55.6801 28.4602 55.7845 26.3662 55.9706 24.3593C55.2301 25.5263 54.1022 26.6687 53.1298 27.661C52.7615 28.0367 51.914 28.6042 51.62 29.0097C50.9296 29.9613 50.5281 31.2262 49.9101 32.2372C47.8237 35.6822 44.759 38.4266 41.1073 40.1191C29.8411 45.47 14.3615 39.0223 13.5585 25.6425C13.3505 22.175 14.5652 17.5349 17.498 15.3798C18.2754 14.8086 19.012 14.5623 19.9423 14.3427C20.0728 13.7321 20.2529 12.9596 20.5263 12.4013C22.748 7.86431 28.2007 5.8412 32.8603 5.92081C36.9919 5.99805 40.9228 7.71835 43.7861 10.7021C46.6256 13.6556 48.1832 17.6144 48.1171 21.7138C48.051 24.9318 46.9758 28.0479 45.0448 30.621C44.7283 31.0492 44.3762 31.5586 43.9999 31.9208C46.1656 31.5832 47.6933 31.0226 49.6073 29.9491C49.9756 29.7428 50.25 29.5466 50.5771 29.289C51.2925 28.7254 51.5368 27.9619 51.7392 27.1122C52.0297 25.9502 52.2176 24.7761 52.3202 23.5849C52.7951 18.3285 51.1493 13.0999 47.7489 9.06729C44.3903 5.09433 39.6071 2.60146 34.4306 2.12491C30.0351 1.71343 25.63 2.80181 21.9296 5.2128C21.3547 5.58896 20.8558 5.91854 20.3153 6.3505C15.1105 10.5102 12.0226 16.6111 11.4628 23.2284C11.0655 27.9269 12.0938 32.7167 11.9599 37.415C11.8731 40.4633 8.45661 41.0923 7.92668 37.9179C7.61935 36.0696 8.04835 34.2071 8.13957 32.3544C8.23004 29.8169 9.61079 18.3891 8.12589 16.5019L8.09464 16.4628C7.98134 16.369 7.89872 16.1329 7.68546 15.953C7.11931 15.2776 6.88796 14.4221 6.9091 13.5536C6.98703 10.3614 6.9991 7.15953 7.14445 3.97061C7.1568 3.70026 7.30126 3.10855 7.48136 2.92472C7.86586 2.83495 8.04599 3.08807 8.22062 3.40323C8.26849 3.48536 7.88053 10.4173 8.37492 10.5224C8.7458 10.5224 8.5376 3.41746 8.61222 3.2753C8.67048 2.8762 8.65506 2.47031 9.11418 2.37198C9.30026 2.45931 9.35891 2.51737 9.43058 2.72745C9.82828 3.89362 9.34805 9.96667 9.82121 10.665L9.93156 10.6757C10.5955 9.96054 9.6446 2.79507 10.6611 2.36319C10.8228 2.40448 10.9398 2.45939 11.0019 2.62296C11.3595 3.56601 11.0783 10.5183 11.4931 10.7489C12.0001 9.95058 11.3824 4.68341 11.7958 3.18448C11.9354 3.04507 12.0859 2.9033 12.2089 2.74991C12.3065 2.89185 12.5873 3.28538 12.6064 3.43155C12.7332 4.41928 12.7265 5.57286 12.7597 6.57413L12.8847 10.4189C12.9192 11.5499 12.9698 12.7987 12.8095 13.9159C12.5397 15.7957 10.0954 16.3002 8.53019 16.4355C10.1152 19.2572 8.31451 30.8361 8.36027 34.4921C8.39228 35.8956 7.71739 39.0047 9.48332 39.6278C10.5493 40.0041 11.4177 38.8783 11.4521 37.8857C11.7207 30.1295 9.66701 22.668 13.0566 15.2382C15.4296 10.0366 19.4128 5.60495 24.745 3.32901C28.9475 1.51648 33.6408 1.18644 38.0546 2.39444C38.8848 2.61576 39.5583 2.90568 40.3456 3.24112C44.396 4.92399 47.7936 7.87627 50.0273 11.6552C52.9857 16.7667 53.5139 22.8699 51.6943 28.4706C53.4333 27.0001 54.6214 25.6539 55.9853 23.8232C56.023 22.7346 56.1168 21.7589 55.8427 20.6884C55.6235 19.8353 55.0439 19.6472 54.7099 19.0614C53.6082 17.1285 54.001 14.1504 54.1825 12.0302C54.3727 9.80583 54.6986 7.80671 55.1933 5.65128C55.5892 3.91058 55.5244 1.70147 56.8075 0.322177ZM35.1786 6.4921C34.2899 6.31458 32.6148 6.19209 31.6737 6.288C27.0762 6.55498 21.2472 9.21278 20.3446 14.2157C21.858 14.158 24.4627 14.2837 25.6337 15.3847C26.0684 15.793 26.3195 16.3603 26.331 16.9569C26.3415 17.63 26.0819 18.279 25.6103 18.7587C24.3033 20.0676 22.2653 19.6976 21.0927 18.4374C20.1771 17.4531 19.889 16.3402 19.912 15.0273C19.9141 14.916 19.9204 14.8041 19.9306 14.6933C14.2092 16.0568 13.2059 24.0249 14.4316 28.8525C15.7748 34.1423 19.8333 38.1032 24.7978 40.1093C28.866 41.7787 33.3603 42.1055 37.6269 41.0429C37.9425 40.9659 38.2279 40.8839 38.5361 40.7821C43.4013 39.1756 47.1477 36.1283 49.8134 31.7323C49.8481 31.6743 49.8808 31.6155 49.912 31.5556C50.2106 30.9212 50.5394 30.1574 50.8525 29.5478C50.0587 30.1163 49.7222 30.241 48.9325 30.6776C46.9658 31.7655 45.6996 32.0299 43.5312 32.3261C38.2673 37.8296 28.6521 38.5879 22.8749 33.5116C21.8095 32.6472 20.3918 29.7963 21.6757 28.6776C22.9362 27.5795 26.8611 29.4263 28.3202 29.8251C32.9595 31.0923 38.5064 32.4054 43.3495 31.9921C44.0628 31.5383 44.227 31.1151 44.7245 30.4784C46.148 28.6552 46.9808 26.4953 47.5009 24.2382C48.2871 20.8229 47.3964 16.6058 45.6025 13.6483C43.2331 9.74388 39.6085 7.37753 35.1786 6.4921ZM26.5556 29.6503C25.1028 29.1891 23.7847 28.5433 22.2148 28.6913C21.1311 29.3809 21.583 31.2665 22.2118 32.1239C26.0743 37.3875 35.0618 37.5614 40.1923 34.5087C41.5138 33.6845 41.9491 33.4807 43.0009 32.3358C37.3375 32.5686 31.9166 31.3523 26.5556 29.6503Z" fill="#040403"/>
<path d="M57.5297 0.27327C58.5341 0.447139 58.2691 2.80823 58.2719 3.63069L58.2856 8.09651L58.3012 15.1473C58.3065 18.5911 58.5185 20.1557 56.3325 23.1434C56.3725 22.6922 56.3785 22.396 56.3715 21.9422C56.3419 20.1593 55.7038 19.896 54.8735 18.5408C53.5668 16.4074 54.8238 9.97217 55.2192 7.49983C55.483 5.85187 55.7011 4.14055 56.0971 2.52034C56.3186 1.61213 56.7006 0.778823 57.5297 0.27327Z" fill="#FEFEFE"/>
<path d="M9.03662 2.75273C9.05204 2.76487 9.06805 2.77631 9.08301 2.78902C9.4053 3.06403 9.26537 8.96834 9.29773 9.84323C9.31101 10.2024 9.31356 10.6859 9.59427 10.9464C10.7791 11.3393 10.4372 9.23324 10.4741 8.53696C10.5761 6.612 10.3023 4.36373 10.7146 2.47755C10.9134 3.3298 10.8649 4.53682 10.8789 5.45119L10.9463 9.01885C10.957 9.59464 10.9332 10.2312 11.0673 10.7896C11.1332 11.064 11.5433 11.1342 11.7651 11.0274C11.8754 10.9744 12.009 10.8186 12.0254 10.6963C12.0875 10.2326 12.0573 9.75334 12.0655 9.2859C12.1244 8.32694 11.9416 4.20021 12.1736 3.45046L12.2286 3.4821C12.4091 4.16119 12.3804 5.36781 12.4012 6.10949L12.5185 9.79468C12.5818 10.8403 12.5491 11.8887 12.5756 12.9299C12.6438 15.6186 10.3824 15.7075 8.29241 16.0339C7.9703 15.6246 7.3169 14.9091 7.29997 14.3947C7.18771 10.9926 7.42261 7.5435 7.45056 4.13262C7.45236 3.91441 7.45224 3.43101 7.69695 3.39994C7.96299 3.90744 7.64192 8.15959 7.72118 9.02327C7.77616 9.62199 7.33441 11.3732 8.53706 11.021C8.91484 10.6718 8.81986 9.38438 8.82549 8.8716L8.89954 5.14089C8.91589 4.40763 8.86596 3.43478 9.03662 2.75273Z" fill="#FEFEFE"/>
<path d="M20.7002 14.5837C21.2056 14.5711 21.7113 14.5813 22.2158 14.6143C23.2576 14.6829 24.7986 14.9432 25.5254 15.769C26.3207 16.6726 26.0303 17.9957 25.153 18.7284C23.1167 20.0597 21.0396 18.5594 20.4105 16.508C20.2564 16.0055 20.1681 15.1827 20.3608 14.7006C20.3948 14.6156 20.6056 14.6029 20.7002 14.5837Z" fill="#FEFEFE"/>
</g>
<path d="M89.53 27.91L88.78 14.98H88.72L81.97 30.85C81.85 31.07 81.71 31.18 81.55 31.18C81.33 31.18 81.18 31.07 81.1 30.85L74.89 15.28H74.83L73.69 27.7C73.59 28.54 73.64 29.19 73.84 29.65C74.06 30.11 74.67 30.38 75.67 30.46C75.75 30.54 75.79 30.65 75.79 30.79C75.79 30.93 75.75 31.05 75.67 31.15C75.21 31.13 74.75 31.1 74.29 31.06C73.85 31.02 73.45 31 73.09 31C72.73 31 72.31 31.02 71.83 31.06C71.35 31.1 70.89 31.13 70.45 31.15C70.35 31.05 70.3 30.93 70.3 30.79C70.3 30.65 70.35 30.54 70.45 30.46C71.29 30.38 71.85 30.14 72.13 29.74C72.41 29.32 72.59 28.66 72.67 27.76L74.02 15.01C74.08 14.27 74.08 13.7 74.02 13.3C73.98 12.9 73.8 12.63 73.48 12.49C73.16 12.33 72.66 12.23 71.98 12.19C71.88 12.09 71.83 11.97 71.83 11.83C71.83 11.69 71.88 11.58 71.98 11.5L76 11.65L82.15 26.89C82.25 27.13 82.34 27.25 82.42 27.25C82.46 27.25 82.49 27.24 82.51 27.22C82.55 27.18 82.62 27.06 82.72 26.86L89.08 11.65L93.04 11.5C93.12 11.58 93.16 11.69 93.16 11.83C93.16 11.97 93.12 12.09 93.04 12.19C92.36 12.23 91.86 12.35 91.54 12.55C91.24 12.75 91.06 13.03 91 13.39C90.94 13.75 90.93 14.2 90.97 14.74L91.96 27.76C92.02 28.58 92.09 29.18 92.17 29.56C92.27 29.92 92.47 30.15 92.77 30.25C93.09 30.35 93.59 30.42 94.27 30.46C94.35 30.54 94.39 30.65 94.39 30.79C94.39 30.93 94.35 31.05 94.27 31.15C93.77 31.13 93.18 31.1 92.5 31.06C91.82 31.02 91.27 31 90.85 31C90.45 31 89.99 31.02 89.47 31.06C88.95 31.1 88.34 31.13 87.64 31.15C87.54 31.05 87.49 30.93 87.49 30.79C87.49 30.65 87.54 30.54 87.64 30.46C88.28 30.42 88.74 30.36 89.02 30.28C89.32 30.2 89.49 29.99 89.53 29.65C89.59 29.29 89.59 28.71 89.53 27.91ZM106.037 28.33C106.357 28.35 106.557 28.51 106.637 28.81C106.077 29.55 105.367 30.15 104.507 30.61C103.667 31.07 102.707 31.3 101.627 31.3C100.587 31.3 99.6873 31.14 98.9273 30.82C98.1873 30.48 97.5773 30.03 97.0973 29.47C96.6373 28.93 96.2973 28.29 96.0773 27.55C95.8573 26.79 95.7473 26.01 95.7473 25.21C95.7473 23.75 96.0473 22.52 96.6473 21.52C97.2473 20.52 97.9973 19.76 98.8973 19.24C99.8173 18.7 100.727 18.43 101.627 18.43C102.967 18.43 103.987 18.69 104.687 19.21C105.407 19.71 105.907 20.35 106.187 21.13C106.467 21.89 106.607 22.67 106.607 23.47C106.607 23.81 106.427 23.98 106.067 23.98L98.0273 24.1C98.0273 25.8 98.3273 27.14 98.9273 28.12C99.3873 28.86 99.9473 29.39 100.607 29.71C101.267 30.03 101.847 30.19 102.347 30.19C103.167 30.19 103.857 30.02 104.417 29.68C104.977 29.32 105.517 28.87 106.037 28.33ZM98.1173 23.23L103.907 23.08C104.187 23.08 104.327 22.95 104.327 22.69C104.327 21.49 104.047 20.6 103.487 20.02C102.947 19.42 102.327 19.12 101.627 19.12C101.267 19.12 100.847 19.24 100.367 19.48C99.8873 19.7 99.4373 20.11 99.0173 20.71C98.5973 21.31 98.2973 22.15 98.1173 23.23ZM116.374 29.62H116.314L115.744 30.07C115.124 30.55 114.604 30.87 114.184 31.03C113.764 31.21 113.224 31.3 112.564 31.3C111.564 31.3 110.714 31.09 110.014 30.67C109.334 30.23 108.994 29.46 108.994 28.36C108.994 27.38 109.434 26.54 110.314 25.84C111.194 25.14 112.324 24.64 113.704 24.34L116.404 23.74C116.444 23.72 116.474 23.64 116.494 23.5C116.534 23.34 116.554 23.21 116.554 23.11C116.554 22.03 116.434 21.2 116.194 20.62C115.954 20.04 115.654 19.64 115.294 19.42C114.954 19.2 114.624 19.09 114.304 19.09C113.764 19.09 113.244 19.2 112.744 19.42C112.244 19.64 111.994 19.98 111.994 20.44C111.994 20.7 112.014 20.89 112.054 21.01C112.114 21.13 112.144 21.3 112.144 21.52C112.144 21.7 112.024 21.93 111.784 22.21C111.564 22.49 111.244 22.63 110.824 22.63C110.504 22.63 110.234 22.52 110.014 22.3C109.794 22.08 109.684 21.8 109.684 21.46C109.684 20.94 109.924 20.45 110.404 19.99C110.884 19.53 111.494 19.16 112.234 18.88C112.994 18.58 113.764 18.43 114.544 18.43C115.244 18.43 115.914 18.56 116.554 18.82C117.194 19.06 117.704 19.53 118.084 20.23C118.484 20.93 118.664 21.95 118.624 23.29L118.474 27.55C118.454 28.37 118.504 29 118.624 29.44C118.764 29.88 119.114 30.1 119.674 30.1C119.974 30.1 120.174 30.02 120.274 29.86C120.374 29.7 120.464 29.62 120.544 29.62C120.604 29.62 120.684 29.66 120.784 29.74C120.904 29.82 120.964 29.91 120.964 30.01C120.964 30.05 120.854 30.18 120.634 30.4C120.434 30.62 120.154 30.82 119.794 31C119.434 31.2 119.014 31.3 118.534 31.3C118.034 31.3 117.634 31.2 117.334 31C117.034 30.8 116.814 30.57 116.674 30.31C116.534 30.05 116.434 29.82 116.374 29.62ZM116.524 24.64L114.064 25.24C113.004 25.5 112.254 25.93 111.814 26.53C111.394 27.11 111.184 27.68 111.184 28.24C111.184 28.54 111.264 28.86 111.424 29.2C111.604 29.52 111.854 29.8 112.174 30.04C112.514 30.28 112.924 30.4 113.404 30.4C113.804 30.4 114.234 30.22 114.694 29.86C115.174 29.5 115.604 29.17 115.984 28.87C116.224 28.69 116.354 28.45 116.374 28.15L116.524 24.64ZM124.147 27.91C124.167 27.49 124.177 26.89 124.177 26.11C124.197 25.31 124.207 24.41 124.207 23.41C124.227 22.41 124.237 21.39 124.237 20.35C124.237 18.95 124.227 17.64 124.207 16.42C124.187 15.2 124.167 14.3 124.147 13.72C124.107 13.02 124.037 12.51 123.937 12.19C123.857 11.87 123.687 11.66 123.427 11.56C123.187 11.46 122.817 11.4 122.317 11.38C122.237 11.28 122.197 11.19 122.197 11.11C122.197 11.03 122.207 10.93 122.227 10.81C122.607 10.77 123.047 10.71 123.547 10.63C124.067 10.55 124.557 10.46 125.017 10.36C125.477 10.26 125.827 10.16 126.067 10.06C126.327 10.06 126.457 10.15 126.457 10.33C126.457 10.33 126.437 10.55 126.397 10.99C126.377 11.41 126.357 12.09 126.337 13.03C126.337 13.47 126.327 14.12 126.307 14.98C126.307 15.82 126.297 16.78 126.277 17.86C126.277 18.94 126.277 20.03 126.277 21.13C126.277 22.57 126.277 23.92 126.277 25.18C126.297 26.44 126.317 27.35 126.337 27.91C126.357 28.69 126.417 29.26 126.517 29.62C126.617 29.96 126.807 30.18 127.087 30.28C127.387 30.36 127.827 30.42 128.407 30.46C128.507 30.56 128.547 30.68 128.527 30.82C128.527 30.96 128.487 31.07 128.407 31.15C127.787 31.13 127.257 31.1 126.817 31.06C126.377 31.02 125.847 31 125.227 31C124.607 31 124.077 31.02 123.637 31.06C123.197 31.1 122.677 31.13 122.077 31.15C121.997 31.07 121.947 30.96 121.927 30.82C121.927 30.68 121.977 30.56 122.077 30.46C122.657 30.42 123.087 30.36 123.367 30.28C123.667 30.18 123.867 29.96 123.967 29.62C124.067 29.26 124.127 28.69 124.147 27.91ZM134.555 22.12C134.555 23.2 134.555 24.25 134.555 25.27C134.575 26.27 134.595 27.33 134.615 28.45C134.635 29.31 134.895 29.85 135.395 30.07C135.895 30.27 136.665 30.4 137.705 30.46C137.805 30.54 137.855 30.65 137.855 30.79C137.855 30.93 137.805 31.05 137.705 31.15C136.965 31.13 136.275 31.1 135.635 31.06C135.015 31.02 134.285 31 133.445 31C132.685 31 132.025 31.02 131.465 31.06C130.925 31.1 130.285 31.13 129.545 31.15C129.465 31.05 129.425 30.93 129.425 30.79C129.425 30.65 129.465 30.54 129.545 30.46C130.245 30.42 130.775 30.35 131.135 30.25C131.495 30.15 131.745 29.92 131.885 29.56C132.025 29.18 132.105 28.57 132.125 27.73C132.145 26.89 132.155 26.15 132.155 25.51C132.175 24.87 132.185 24.23 132.185 23.59C132.185 22.93 132.185 22.19 132.185 21.37C132.185 20.53 132.175 19.79 132.155 19.15C132.155 18.49 132.155 17.83 132.155 17.17C132.155 16.49 132.145 15.74 132.125 14.92C132.125 14.08 132.055 13.48 131.915 13.12C131.775 12.74 131.515 12.5 131.135 12.4C130.775 12.28 130.245 12.21 129.545 12.19C129.465 12.09 129.425 11.97 129.425 11.83C129.425 11.69 129.465 11.58 129.545 11.5C130.305 11.52 130.945 11.55 131.465 11.59C132.005 11.63 132.645 11.65 133.385 11.65C133.785 11.65 134.255 11.63 134.795 11.59C135.335 11.53 135.845 11.48 136.325 11.44C136.825 11.38 137.205 11.35 137.465 11.35C138.845 11.35 139.975 11.53 140.855 11.89C141.735 12.23 142.405 12.67 142.865 13.21C143.345 13.75 143.675 14.31 143.855 14.89C144.035 15.47 144.125 15.98 144.125 16.42C144.125 17.06 144.015 17.73 143.795 18.43C143.575 19.11 143.195 19.75 142.655 20.35C142.135 20.95 141.415 21.44 140.495 21.82C139.595 22.2 138.465 22.39 137.105 22.39C136.605 22.39 136.135 22.37 135.695 22.33C135.275 22.29 134.895 22.22 134.555 22.12ZM134.615 13.51C134.595 14.75 134.575 16.06 134.555 17.44C134.555 18.82 134.555 20.13 134.555 21.37V21.52C134.755 21.56 135.105 21.6 135.605 21.64C136.125 21.66 136.565 21.67 136.925 21.67C138.385 21.67 139.505 21.29 140.285 20.53C141.085 19.77 141.485 18.58 141.485 16.96C141.485 15.68 141.275 14.69 140.855 13.99C140.455 13.29 139.935 12.8 139.295 12.52C138.655 12.22 137.985 12.07 137.285 12.07C136.205 12.07 135.495 12.2 135.155 12.46C134.815 12.72 134.635 13.07 134.615 13.51ZM147.224 13.03C147.224 12.67 147.394 12.34 147.734 12.04C148.074 11.74 148.424 11.59 148.784 11.59C149.184 11.59 149.524 11.76 149.804 12.1C150.084 12.44 150.224 12.79 150.224 13.15C150.224 13.47 150.064 13.79 149.744 14.11C149.444 14.43 149.084 14.59 148.664 14.59C148.304 14.59 147.974 14.43 147.674 14.11C147.374 13.77 147.224 13.41 147.224 13.03ZM150.104 27.73C150.144 28.57 150.214 29.18 150.314 29.56C150.414 29.92 150.614 30.15 150.914 30.25C151.214 30.35 151.664 30.42 152.264 30.46C152.364 30.54 152.414 30.65 152.414 30.79C152.414 30.93 152.364 31.05 152.264 31.15C151.824 31.11 151.284 31.07 150.644 31.03C150.024 31.01 149.484 31 149.024 31C148.584 31 148.024 31.01 147.344 31.03C146.684 31.07 146.154 31.11 145.754 31.15C145.674 31.05 145.634 30.93 145.634 30.79C145.634 30.65 145.674 30.54 145.754 30.46C146.374 30.4 146.824 30.32 147.104 30.22C147.404 30.12 147.604 29.89 147.704 29.53C147.824 29.15 147.894 28.55 147.914 27.73C147.934 27.27 147.944 26.71 147.944 26.05C147.964 25.39 147.974 24.83 147.974 24.37C147.974 23.93 147.964 23.5 147.944 23.08C147.944 22.66 147.934 22.23 147.914 21.79C147.894 21.21 147.834 20.79 147.734 20.53C147.634 20.25 147.444 20.07 147.164 19.99C146.904 19.89 146.504 19.81 145.964 19.75C145.944 19.65 145.924 19.56 145.904 19.48C145.884 19.38 145.884 19.29 145.904 19.21C146.944 19.07 147.764 18.93 148.364 18.79C148.964 18.65 149.474 18.5 149.894 18.34C150.154 18.34 150.284 18.41 150.284 18.55C150.284 18.55 150.274 18.71 150.254 19.03C150.234 19.33 150.204 19.72 150.164 20.2C150.144 20.68 150.124 21.17 150.104 21.67C150.084 22.11 150.064 22.57 150.044 23.05C150.044 23.51 150.044 23.96 150.044 24.4C150.044 24.86 150.044 25.42 150.044 26.08C150.064 26.72 150.084 27.27 150.104 27.73ZM164.492 28.39C163.772 29.55 163.002 30.33 162.182 30.73C161.382 31.11 160.552 31.3 159.692 31.3C158.492 31.3 157.452 31.04 156.572 30.52C155.712 29.98 155.042 29.24 154.562 28.3C154.102 27.36 153.872 26.28 153.872 25.06C153.872 23.7 154.172 22.53 154.772 21.55C155.392 20.55 156.162 19.78 157.082 19.24C158.022 18.7 158.962 18.43 159.902 18.43C161.282 18.43 162.382 18.69 163.202 19.21C164.042 19.73 164.462 20.38 164.462 21.16C164.462 21.6 164.302 21.92 163.982 22.12C163.682 22.32 163.382 22.42 163.082 22.42C162.782 22.42 162.532 22.35 162.332 22.21C162.152 22.07 162.042 21.8 162.002 21.4C161.962 21.06 161.872 20.72 161.732 20.38C161.592 20.02 161.362 19.72 161.042 19.48C160.742 19.24 160.312 19.12 159.752 19.12C159.132 19.12 158.542 19.35 157.982 19.81C157.442 20.25 157.002 20.87 156.662 21.67C156.322 22.45 156.152 23.37 156.152 24.43C156.152 25.63 156.342 26.66 156.722 27.52C157.102 28.38 157.612 29.04 158.252 29.5C158.892 29.96 159.582 30.19 160.322 30.19C160.942 30.19 161.592 30 162.272 29.62C162.972 29.22 163.562 28.71 164.042 28.09C164.182 28.11 164.272 28.13 164.312 28.15C164.372 28.17 164.432 28.25 164.492 28.39ZM167.821 27.91C167.841 27.49 167.851 26.89 167.851 26.11C167.871 25.31 167.881 24.41 167.881 23.41C167.901 22.41 167.911 21.39 167.911 20.35C167.911 18.95 167.901 17.64 167.881 16.42C167.861 15.2 167.841 14.3 167.821 13.72C167.781 13.02 167.711 12.51 167.611 12.19C167.531 11.87 167.361 11.66 167.101 11.56C166.861 11.46 166.491 11.4 165.991 11.38C165.911 11.28 165.871 11.19 165.871 11.11C165.871 11.03 165.881 10.93 165.901 10.81C166.281 10.77 166.721 10.71 167.221 10.63C167.741 10.55 168.231 10.46 168.691 10.36C169.151 10.26 169.501 10.16 169.741 10.06C170.001 10.06 170.131 10.15 170.131 10.33C170.131 10.33 170.111 10.55 170.071 10.99C170.051 11.41 170.031 12.09 170.011 13.03C170.011 13.47 170.001 14.12 169.981 14.98C169.981 15.82 169.971 16.78 169.951 17.86C169.951 18.94 169.951 20.03 169.951 21.13C169.951 21.67 169.951 22.21 169.951 22.75C169.951 23.29 169.951 23.81 169.951 24.31C170.231 24.27 170.621 24.17 171.121 24.01C171.621 23.85 172.031 23.65 172.351 23.41C172.711 23.13 173.101 22.78 173.521 22.36C173.941 21.92 174.311 21.49 174.631 21.07C174.731 20.95 174.801 20.76 174.841 20.5C174.901 20.22 174.851 19.96 174.691 19.72C174.551 19.46 174.211 19.31 173.671 19.27C173.591 19.17 173.551 19.05 173.551 18.91C173.551 18.77 173.591 18.66 173.671 18.58C174.191 18.6 174.651 18.63 175.051 18.67C175.471 18.71 175.951 18.73 176.491 18.73C177.011 18.73 177.421 18.71 177.721 18.67C178.041 18.63 178.461 18.6 178.981 18.58C179.081 18.66 179.131 18.77 179.131 18.91C179.131 19.05 179.081 19.17 178.981 19.27C178.421 19.33 177.891 19.5 177.391 19.78C176.891 20.06 176.421 20.43 175.981 20.89L173.461 23.47C173.381 23.55 173.341 23.65 173.341 23.77C173.341 23.85 173.361 23.92 173.401 23.98C173.461 24.04 173.511 24.1 173.551 24.16L177.331 28.9C178.051 29.82 178.871 30.34 179.791 30.46C179.891 30.54 179.941 30.65 179.941 30.79C179.941 30.93 179.891 31.05 179.791 31.15C179.611 31.13 179.361 31.11 179.041 31.09C178.721 31.07 178.411 31.05 178.111 31.03C177.811 31.01 177.581 31 177.421 31C177.221 31 176.961 31.01 176.641 31.03C176.321 31.07 176.051 31.11 175.831 31.15C175.791 31.15 175.751 31.1 175.711 31C175.651 30.78 175.551 30.51 175.411 30.19C175.271 29.87 175.001 29.44 174.601 28.9L172.531 26.11C172.211 25.67 171.881 25.38 171.541 25.24C171.201 25.08 170.671 25 169.951 25C169.971 25.64 169.981 26.21 169.981 26.71C170.001 27.21 170.011 27.61 170.011 27.91C170.031 28.69 170.091 29.26 170.191 29.62C170.291 29.96 170.481 30.18 170.761 30.28C171.061 30.36 171.501 30.42 172.081 30.46C172.181 30.56 172.221 30.68 172.201 30.82C172.201 30.96 172.161 31.07 172.081 31.15C171.461 31.13 170.931 31.1 170.491 31.06C170.051 31.02 169.521 31 168.901 31C168.281 31 167.751 31.02 167.311 31.06C166.871 31.1 166.351 31.13 165.751 31.15C165.671 31.07 165.621 30.96 165.601 30.82C165.601 30.68 165.651 30.56 165.751 30.46C166.331 30.42 166.761 30.36 167.041 30.28C167.341 30.18 167.541 29.96 167.641 29.62C167.741 29.26 167.801 28.69 167.821 27.91Z" fill="#5F5145"/>
<defs>
<clipPath id="clip0_6_220">
<rect width="62" height="42" fill="white"/>
</clipPath>
</defs>
</svg>
