<svg preserveAspectRatio="xMidYMid meet" width="24" height="24" overflow="visible" style="display: block;" viewBox="-2.837 -1.387 24 24" fill="none" xmlns="http://www.w3.org/2000/svg">
<g id="Group">
<g id="Vector">
<mask id="path-1-inside-1_0_80" fill="white">
<path d="M9.74564 21.873L9.75664 21.871C9.76531 21.8723 9.77097 21.8783 9.77364 21.889L9.79064 22.316L9.78664 22.333L9.77464 22.349L9.67064 22.423L9.65864 22.427L9.64364 22.423L9.53964 22.349L9.52964 22.336L9.52464 22.316L9.54164 21.888L9.54564 21.878C9.55097 21.8713 9.55897 21.8697 9.56964 21.873L9.64064 21.908L9.65464 21.912L9.67464 21.908L9.74564 21.873Z"/>
<path d="M10.0086 21.76L10.0216 21.758C10.0316 21.7607 10.0383 21.768 10.0416 21.78L10.0756 22.394L10.0716 22.408C10.065 22.4167 10.0553 22.4193 10.0426 22.416L9.84164 22.323L9.83364 22.316L9.82864 22.304L9.81064 21.874L9.81364 21.863L9.82364 21.853L10.0086 21.76Z"/>
<path d="M9.29194 21.7576C9.29697 21.7565 9.30223 21.7573 9.30664 21.76L9.49064 21.852L9.50064 21.862L9.50364 21.874L9.48664 22.304L9.48264 22.315L9.47264 22.323L9.27164 22.416L9.25664 22.418C9.24597 22.414 9.24031 22.406 9.23964 22.394L9.27364 21.78L9.27964 21.766C9.2825 21.7617 9.28691 21.7587 9.29194 21.7576Z"/>
</mask>
<path d="M9.75664 21.871L9.9087 20.8826L9.74282 20.8571L9.57769 20.8871L9.75664 21.871ZM9.74564 21.873L9.56669 20.8891L9.42901 20.9142L9.30349 20.9761L9.74564 21.873ZM9.67464 21.908L9.87075 22.8886L9.99925 22.8629L10.1168 22.8049L9.67464 21.908ZM9.65464 21.912L9.37994 22.8735L9.61303 22.9401L9.85075 22.8926L9.65464 21.912ZM9.64064 21.908L9.19849 22.8049L9.2793 22.8448L9.36594 22.8695L9.64064 21.908ZM9.56964 21.873L10.0118 20.9761L9.94209 20.9417L9.86791 20.9185L9.56964 21.873ZM9.54564 21.878L8.76477 21.2533L8.67219 21.369L8.61715 21.5066L9.54564 21.878ZM9.54164 21.888L8.61315 21.5166L8.54926 21.6764L8.54243 21.8483L9.54164 21.888ZM9.52464 22.316L8.52543 22.2763L8.51974 22.4195L8.5545 22.5585L9.52464 22.316ZM9.52964 22.336L8.5595 22.5785L8.61002 22.7806L8.73701 22.9457L9.52964 22.336ZM9.53964 22.349L8.74701 22.9587L8.83812 23.0772L8.95989 23.1638L9.53964 22.349ZM9.64364 22.423L9.06388 23.2378L9.21125 23.3426L9.386 23.3892L9.64364 22.423ZM9.65864 22.427L9.401 23.3932L9.69055 23.4704L9.97485 23.3757L9.65864 22.427ZM9.67064 22.423L9.98685 23.3717L10.1286 23.3244L10.2504 23.2378L9.67064 22.423ZM9.77464 22.349L10.3544 23.1638L10.4812 23.0735L10.5747 22.949L9.77464 22.349ZM9.78664 22.333L10.5867 22.933L10.7122 22.7656L10.7601 22.562L9.78664 22.333ZM9.79064 22.316L10.7641 22.545L10.7953 22.4124L10.7898 22.2762L9.79064 22.316ZM9.77364 21.889L10.7728 21.8492L10.7688 21.7463L10.7438 21.6465L9.77364 21.889ZM10.0216 21.758L10.2793 20.7918L10.0768 20.7378L9.86966 20.7696L10.0216 21.758ZM10.0086 21.76L9.85666 20.7716L9.70058 20.7956L9.5595 20.8665L10.0086 21.76ZM9.82364 21.853L9.37449 20.9595L9.2305 21.0319L9.11653 21.1459L9.82364 21.853ZM9.81364 21.863L9.10653 21.1559L8.91873 21.3437L8.84886 21.5999L9.81364 21.863ZM9.81064 21.874L8.84586 21.6109L8.80502 21.7607L8.81152 21.9158L9.81064 21.874ZM9.82864 22.304L8.82951 22.3458L8.83697 22.524L8.90558 22.6886L9.82864 22.304ZM9.83364 22.316L8.91058 22.7006L9.00006 22.9154L9.17515 23.0686L9.83364 22.316ZM9.84164 22.323L9.18315 23.0756L9.2913 23.1702L9.42172 23.2306L9.84164 22.323ZM10.0426 22.416L9.62272 23.3236L9.70281 23.3606L9.78815 23.3831L10.0426 22.416ZM10.0716 22.408L10.8643 23.0177L10.9807 22.8663L11.0332 22.6827L10.0716 22.408ZM10.0756 22.394L11.0372 22.6687L11.0834 22.5068L11.0741 22.3387L10.0756 22.394ZM10.0416 21.78L11.0401 21.7247L11.0341 21.6166L11.0052 21.5124L10.0416 21.78ZM9.30664 21.76L8.78835 22.6152L8.82309 22.6363L8.85942 22.6544L9.30664 21.76ZM9.29194 21.7576L9.50887 22.7338L9.29194 21.7576ZM9.27964 21.766L8.44793 21.2108L8.39679 21.2874L8.36051 21.3721L9.27964 21.766ZM9.27364 21.78L8.35451 21.3861L8.28493 21.5484L8.27517 21.7247L9.27364 21.78ZM9.23964 22.394L8.24117 22.3387L8.2381 22.3941L8.24118 22.4495L9.23964 22.394ZM9.25664 22.418L8.90552 23.3543L9.14031 23.4424L9.38886 23.4092L9.25664 22.418ZM9.27164 22.416L9.40386 23.4072L9.55405 23.3872L9.69156 23.3236L9.27164 22.416ZM9.47264 22.323L9.89256 23.2306L10.0026 23.1796L10.0973 23.1039L9.47264 22.323ZM9.48264 22.315L10.1073 23.0959L10.3265 22.9205L10.4224 22.6567L9.48264 22.315ZM9.48664 22.304L10.4264 22.6457L10.4797 22.4992L10.4859 22.3435L9.48664 22.304ZM9.50364 21.874L10.5029 21.9135L10.5085 21.7704L10.4738 21.6314L9.50364 21.874ZM9.50064 21.862L10.4708 21.6194L10.4036 21.3507L10.2077 21.1549L9.50064 21.862ZM9.49064 21.852L10.1977 21.1449L10.083 21.0301L9.93786 20.9576L9.49064 21.852ZM9.75664 21.871L9.57769 20.8871L9.56669 20.8891L9.74564 21.873L9.92459 22.8569L9.93559 22.8549L9.75664 21.871ZM9.74564 21.873L9.30349 20.9761L9.23249 21.0111L9.67464 21.908L10.1168 22.8049L10.1878 22.7699L9.74564 21.873ZM9.67464 21.908L9.47853 20.9274L9.45853 20.9314L9.65464 21.912L9.85075 22.8926L9.87075 22.8886L9.67464 21.908ZM9.65464 21.912L9.92934 20.9505L9.91534 20.9465L9.64064 21.908L9.36594 22.8695L9.37994 22.8735L9.65464 21.912ZM9.64064 21.908L10.0828 21.0111L10.0118 20.9761L9.56964 21.873L9.12749 22.7699L9.19849 22.8049L9.64064 21.908ZM9.56964 21.873L9.86791 20.9185C9.75711 20.8839 9.57262 20.8468 9.35174 20.8928C9.10928 20.9433 8.90568 21.0772 8.76477 21.2533L9.54564 21.878L10.3265 22.5027C10.1909 22.6722 9.994 22.8019 9.75954 22.8507C9.54666 22.8951 9.3715 22.8588 9.27137 22.8275L9.56964 21.873ZM9.54564 21.878L8.61715 21.5066L8.61315 21.5166L9.54164 21.888L10.4701 22.2594L10.4741 22.2494L9.54564 21.878ZM9.54164 21.888L8.54243 21.8483L8.52543 22.2763L9.52464 22.316L10.5239 22.3557L10.5409 21.9277L9.54164 21.888ZM9.52464 22.316L8.5545 22.5585L8.5595 22.5785L9.52964 22.336L10.4998 22.0935L10.4948 22.0735L9.52464 22.316ZM9.52964 22.336L8.73701 22.9457L8.74701 22.9587L9.53964 22.349L10.3323 21.7393L10.3223 21.7263L9.52964 22.336ZM9.53964 22.349L8.95989 23.1638L9.06388 23.2378L9.64364 22.423L10.2234 21.6082L10.1194 21.5342L9.53964 22.349ZM9.64364 22.423L9.386 23.3892L9.401 23.3932L9.65864 22.427L9.91628 21.4608L9.90128 21.4568L9.64364 22.423ZM9.65864 22.427L9.97485 23.3757L9.98685 23.3717L9.67064 22.423L9.35443 21.4743L9.34243 21.4783L9.65864 22.427ZM9.67064 22.423L10.2504 23.2378L10.3544 23.1638L9.77464 22.349L9.19489 21.5342L9.09089 21.6082L9.67064 22.423ZM9.77464 22.349L10.5747 22.949L10.5867 22.933L9.78664 22.333L8.98663 21.733L8.97463 21.749L9.77464 22.349ZM9.78664 22.333L10.7601 22.562L10.7641 22.545L9.79064 22.316L8.81722 22.087L8.81322 22.104L9.78664 22.333ZM9.79064 22.316L10.7898 22.2762L10.7728 21.8492L9.77364 21.889L8.77443 21.9288L8.79143 22.3558L9.79064 22.316ZM9.77364 21.889L10.7438 21.6465C10.7142 21.5281 10.6478 21.3523 10.4944 21.1899C10.3289 21.0146 10.1182 20.9149 9.9087 20.8826L9.75664 21.871L9.60458 22.8594C9.40375 22.8285 9.2002 22.7324 9.04036 22.5631C8.89266 22.4067 8.83043 22.2393 8.8035 22.1315L9.77364 21.889ZM10.0216 21.758L9.86966 20.7696L9.85666 20.7716L10.0086 21.76L10.1606 22.7484L10.1736 22.7464L10.0216 21.758ZM10.0086 21.76L9.5595 20.8665L9.37449 20.9595L9.82364 21.853L10.2728 22.7465L10.4578 22.6535L10.0086 21.76ZM9.82364 21.853L9.11653 21.1459L9.10653 21.1559L9.81364 21.863L10.5207 22.5701L10.5307 22.5601L9.82364 21.853ZM9.81364 21.863L8.84886 21.5999L8.84586 21.6109L9.81064 21.874L10.7754 22.1371L10.7784 22.1261L9.81364 21.863ZM9.81064 21.874L8.81152 21.9158L8.82951 22.3458L9.82864 22.304L10.8278 22.2622L10.8098 21.8322L9.81064 21.874ZM9.82864 22.304L8.90558 22.6886L8.91058 22.7006L9.83364 22.316L10.7567 21.9314L10.7517 21.9194L9.82864 22.304ZM9.83364 22.316L9.17515 23.0686L9.18315 23.0756L9.84164 22.323L10.5001 21.5704L10.4921 21.5634L9.83364 22.316ZM9.84164 22.323L9.42172 23.2306L9.62272 23.3236L10.0426 22.416L10.4626 21.5084L10.2616 21.4154L9.84164 22.323ZM10.0426 22.416L9.78815 23.3831C9.91425 23.4163 10.1059 23.441 10.3253 23.3805C10.5587 23.3161 10.7412 23.1777 10.8643 23.0177L10.0716 22.408L9.27901 21.7983C9.39545 21.6469 9.56975 21.5142 9.79349 21.4525C10.0033 21.3946 10.1837 21.4191 10.2971 21.4489L10.0426 22.416ZM10.0716 22.408L11.0332 22.6827L11.0372 22.6687L10.0756 22.394L9.11411 22.1193L9.11011 22.1333L10.0716 22.408ZM10.0756 22.394L11.0741 22.3387L11.0401 21.7247L10.0416 21.78L9.04317 21.8353L9.07717 22.4493L10.0756 22.394ZM10.0416 21.78L11.0052 21.5124C10.9296 21.2404 10.7064 20.9056 10.2793 20.7918L10.0216 21.758L9.76398 22.7242C9.59204 22.6784 9.42602 22.5832 9.29423 22.4382C9.16888 22.3003 9.10782 22.1546 9.07812 22.0476L10.0416 21.78ZM9.30664 21.76L9.82493 20.9048C9.60006 20.7685 9.33141 20.7244 9.07501 20.7814L9.29194 21.7576L9.50887 22.7338C9.26253 22.7885 9.0044 22.7461 8.78835 22.6152L9.30664 21.76ZM9.29194 21.7576L9.07501 20.7814C8.81854 20.8384 8.59387 20.9922 8.44793 21.2108L9.27964 21.766L10.1114 22.3212C9.97113 22.5313 9.75527 22.679 9.50887 22.7338L9.29194 21.7576ZM9.27964 21.766L8.36051 21.3721L8.35451 21.3861L9.27364 21.78L10.1928 22.1739L10.1988 22.1599L9.27964 21.766ZM9.27364 21.78L8.27517 21.7247L8.24117 22.3387L9.23964 22.394L10.2381 22.4493L10.2721 21.8353L9.27364 21.78ZM9.23964 22.394L8.24118 22.4495C8.24959 22.6008 8.29453 22.7981 8.42837 22.987C8.56468 23.1795 8.74402 23.2938 8.90552 23.3543L9.25664 22.418L9.60776 21.4817C9.75859 21.5382 9.92976 21.6465 10.0604 21.831C10.1886 22.0119 10.2304 22.1992 10.2381 22.3385L9.23964 22.394ZM9.25664 22.418L9.38886 23.4092L9.40386 23.4072L9.27164 22.416L9.13942 21.4248L9.12442 21.4268L9.25664 22.418ZM9.27164 22.416L9.69156 23.3236L9.89256 23.2306L9.47264 22.323L9.05272 21.4154L8.85172 21.5084L9.27164 22.416ZM9.47264 22.323L10.0973 23.1039L10.1073 23.0959L9.48264 22.315L8.85798 21.5341L8.84798 21.5421L9.47264 22.323ZM9.48264 22.315L10.4224 22.6567L10.4264 22.6457L9.48664 22.304L8.54684 21.9623L8.54284 21.9733L9.48264 22.315ZM9.48664 22.304L10.4859 22.3435L10.5029 21.9135L9.50364 21.874L8.50442 21.8345L8.48742 22.2645L9.48664 22.304ZM9.50364 21.874L10.4738 21.6314L10.4708 21.6194L9.50064 21.862L8.53051 22.1046L8.53351 22.1166L9.50364 21.874ZM9.50064 21.862L10.2077 21.1549L10.1977 21.1449L9.49064 21.852L8.78353 22.5591L8.79353 22.5691L9.50064 21.862ZM9.49064 21.852L9.93786 20.9576L9.75386 20.8656L9.30664 21.76L8.85942 22.6544L9.04342 22.7464L9.49064 21.852Z" fill="var(--stroke-0, #5D5D5D)" mask="url(#path-1-inside-1_0_80)"/>
</g>
<path id="Vector_2" d="M8.42188 1.18457L8.42383 1.18652C9.92386 2.07322 11.0764 3.44544 11.6904 5.07617L12.1201 6.21777L12.6152 5.10254C12.7413 4.81872 12.8781 4.54485 13.0215 4.26465L13.5166 4.75977C15.6794 6.92256 17.6641 10.102 17.6641 13.1133C17.664 15.1558 17.0364 16.7832 15.9434 17.9541C14.848 19.1274 13.2448 19.8852 11.2188 20.1104L10.5234 20.1865L10.6758 19.5049V19.5039C10.9188 18.4086 10.9726 17.6524 10.915 17.0898C10.8408 16.3358 10.4799 15.7622 10.0996 15.2607C9.74961 14.7981 9.42718 14.3654 9.17188 13.8945L8.88867 13.3721L8.42285 13.7402C7.21985 14.691 6.69809 15.5959 6.52734 16.4033V16.4043C6.31242 17.4246 6.62742 18.4238 7.11035 19.3896L7.52148 20.2109L6.60938 20.1104H6.6084C4.19535 19.8423 1.82855 18.2247 0.904297 15.9043C-0.0418207 13.5259 0.575375 10.5605 3.83594 7.73438L3.83691 7.73535C5.99381 5.86636 7.20578 3.48973 7.77441 0.795898L8.42188 1.18457ZM8.82129 3.22461L8.2793 3.13184C7.59687 5.04836 6.31886 6.82171 4.79883 8.2168L4.49121 8.49121C2.98542 9.7963 2.12841 11.0811 1.74609 12.291C1.36203 13.5065 1.4674 14.6143 1.83398 15.5342C2.374 16.8922 3.52511 17.9822 4.86328 18.5957L5.77051 19.0117L5.56055 18.0361C5.43006 17.4296 5.42644 16.8023 5.5498 16.1943L5.54883 16.1934C5.83827 14.8283 6.83278 13.4806 8.89844 12.1895L9.43652 11.8516L9.63867 12.4551C9.83628 13.0479 10.1362 13.5436 10.4443 13.9932C10.7667 14.4636 11.0607 14.836 11.3398 15.2891C11.8894 16.1817 12.0094 17.2276 11.8887 18.3301L11.8105 19.0439L12.5068 18.8701C13.9224 18.5162 14.9774 17.7904 15.6709 16.7705C16.3589 15.7585 16.664 14.4982 16.6641 13.1133C16.6641 10.7104 15.2257 8.41343 13.8877 6.69922L13.376 6.04395L13.0371 6.80371C12.6763 7.61201 12.017 8.00119 11.1641 8.42578V7.61328C11.1641 6.11858 10.558 4.31315 9.09277 2.93652L8.82129 3.22461Z" fill="var(--fill-0, #5D5D5D)" stroke="var(--stroke-0, #5D5D5D)"/>
</g>
</svg>
