<svg preserveAspectRatio="xMidYMid meet" width="24" height="24" overflow="visible" style="display: block;" viewBox="-3 -5.5 24 24" fill="none" xmlns="http://www.w3.org/2000/svg">
<g id="Group">
<path id="Vector" d="M3.49189 4.77246C3.55572 4.78971 3.6102 4.83141 3.64326 4.88867C3.66802 4.93159 3.67953 4.98056 3.67646 5.0293L3.66865 5.07813C3.38715 6.12884 3.42346 7.23949 3.77314 8.26953C4.12284 9.29949 4.76957 10.2031 5.63252 10.8652C6.49558 11.5274 7.53626 11.9182 8.62177 11.9893C9.7071 12.0603 10.7892 11.8085 11.7311 11.2646C11.7596 11.2482 11.7913 11.2377 11.8239 11.2334C11.8565 11.2291 11.8899 11.2308 11.9216 11.2393C11.9531 11.2477 11.9826 11.2624 12.0085 11.2822C12.0346 11.3023 12.0565 11.328 12.0729 11.3564C12.0893 11.3848 12.0999 11.4159 12.1042 11.4482C12.1085 11.4808 12.1068 11.5142 12.0983 11.5459C12.0898 11.5776 12.0753 11.6078 12.0554 11.6338C12.0353 11.6599 12.0096 11.6818 11.9811 11.6982C10.9534 12.2912 9.77259 12.566 8.58857 12.4883C7.40465 12.4105 6.27011 11.984 5.32881 11.2617C4.38738 10.5393 3.68106 9.55332 3.29951 8.42969C2.91814 7.30637 2.87859 6.09519 3.18525 4.94922C3.19375 4.91754 3.20826 4.88735 3.22822 4.86133C3.24818 4.83534 3.27309 4.81327 3.30146 4.79688C3.32991 4.78047 3.36168 4.76989 3.39424 4.76563C3.42678 4.76137 3.46019 4.76394 3.49189 4.77246ZM5.98115 1.30469C7.00879 0.711199 8.18955 0.435224 9.37373 0.512695C10.558 0.590246 11.6929 1.01773 12.6345 1.74023C13.576 2.46274 14.2824 3.44841 14.6638 4.57227C15.045 5.69603 15.0844 6.9075 14.777 8.05371C14.7599 8.11781 14.7183 8.1728 14.6608 8.20605C14.6033 8.23929 14.5346 8.24862 14.4704 8.23145C14.4063 8.21426 14.3513 8.17176 14.3181 8.11426C14.285 8.05687 14.2766 7.98879 14.2936 7.9248C14.5744 6.87435 14.537 5.7639 14.1872 4.73438C13.8374 3.7048 13.1905 2.80163 12.3278 2.13965C11.4652 1.47768 10.4255 1.08614 9.34052 1.01465C8.25551 0.943167 7.1732 1.19523 6.23115 1.73828C6.17373 1.77132 6.1057 1.77982 6.0417 1.7627C5.97757 1.74549 5.92254 1.70399 5.88935 1.64648C5.85616 1.58896 5.84675 1.5202 5.86396 1.45605C5.88119 1.39204 5.92375 1.33785 5.98115 1.30469Z" fill="var(--fill-0, #5D5D5D)" stroke="var(--stroke-0, #354D3F)"/>
<path id="Vector_2" fill-rule="evenodd" clip-rule="evenodd" d="M2.70129 3.97126C2.84192 3.83081 3.03254 3.75192 3.23129 3.75192C3.43004 3.75192 3.62067 3.83081 3.76129 3.97126L6.26129 6.47126C6.33498 6.53992 6.39408 6.62272 6.43507 6.71472C6.47606 6.80672 6.49811 6.90604 6.49988 7.00674C6.50166 7.10744 6.48314 7.20747 6.44541 7.30086C6.40769 7.39425 6.35155 7.47908 6.28033 7.5503C6.20911 7.62152 6.12428 7.67766 6.03089 7.71538C5.9375 7.75311 5.83747 7.77163 5.73677 7.76985C5.63607 7.76808 5.53675 7.74603 5.44475 7.70504C5.35275 7.66405 5.26995 7.60495 5.20129 7.53126L3.23129 5.56126L1.26129 7.53126C1.11912 7.66374 0.93107 7.73586 0.736769 7.73244C0.542468 7.72901 0.357083 7.6503 0.21967 7.51288C0.0822571 7.37547 0.00354506 7.19008 0.000116847 6.99578C-0.00331137 6.80148 0.0688118 6.61344 0.201292 6.47126L2.70129 3.97126ZM11.7013 5.47126C11.8419 5.33081 12.0325 5.25192 12.2313 5.25192C12.43 5.25192 12.6207 5.33081 12.7613 5.47126L14.7313 7.44126L16.7013 5.47126C16.77 5.39757 16.8528 5.33847 16.9448 5.29748C17.0368 5.25649 17.1361 5.23445 17.2368 5.23267C17.3375 5.23089 17.4375 5.24942 17.5309 5.28714C17.6243 5.32486 17.7091 5.381 17.7803 5.45222C17.8515 5.52344 17.9077 5.60828 17.9454 5.70166C17.9831 5.79505 18.0017 5.89508 17.9999 5.99578C17.9981 6.09649 17.9761 6.1958 17.9351 6.2878C17.8941 6.3798 17.835 6.4626 17.7613 6.53126L15.2613 9.03126C15.1207 9.17171 14.93 9.2506 14.7313 9.2506C14.5325 9.2506 14.3419 9.17171 14.2013 9.03126L11.7013 6.53126C11.5608 6.39064 11.482 6.20001 11.482 6.00126C11.482 5.80251 11.5608 5.61189 11.7013 5.47126Z" fill="var(--fill-0, #5D5D5D)"/>
</g>
</svg>
