<svg width="24" height="24" preserveAspectRatio="xMidYMid meet" overflow="visible" style="display: block;" viewBox="-1.5 -3 24 24" fill="none" xmlns="http://www.w3.org/2000/svg">
<path id="Vector" d="M15.3389 0.25C16.0513 0.250594 16.7571 0.392405 17.4141 0.667969C18.071 0.943547 18.6664 1.34764 19.166 1.85547C20.1836 2.89139 20.7539 4.2852 20.7539 5.7373C20.7539 7.18916 20.1842 8.58325 19.167 9.61914L10.502 18.3936L1.83789 9.61914H1.83691C0.81975 8.58326 0.25 7.18912 0.25 5.7373C0.250052 4.28524 0.820349 2.89138 1.83789 1.85547C2.33738 1.34762 2.9329 0.944284 3.58984 0.668945C4.2467 0.393666 4.95185 0.252015 5.66406 0.251953C6.37643 0.251953 7.08225 0.393606 7.73926 0.668945C8.39619 0.944283 8.99173 1.34763 9.49121 1.85547L9.49219 1.85645L10.3242 2.69629L10.502 2.875L10.6797 2.69629L11.5117 1.85645L11.5127 1.85547C12.0115 1.34673 12.6076 0.942604 13.2646 0.666992C13.9215 0.391484 14.6266 0.249456 15.3389 0.25ZM15.3398 1.25C14.7578 1.24917 14.1815 1.36583 13.6455 1.59277C13.1098 1.81962 12.6251 2.15209 12.2207 2.57031L10.502 4.32227L8.77539 2.55566V2.55469C8.36959 2.14147 7.88562 1.81294 7.35156 1.58887C6.81743 1.36478 6.24329 1.25 5.66406 1.25C5.08499 1.25006 4.51152 1.36484 3.97754 1.58887C3.51001 1.78503 3.08092 2.06135 2.70898 2.4043L2.55371 2.55469C1.71993 3.40123 1.25293 4.54226 1.25293 5.73047C1.25305 6.9185 1.72005 8.05885 2.55371 8.90527L10.3242 16.7734L10.502 16.9531L10.6797 16.7734L18.4502 8.90527C19.2839 8.05884 19.7509 6.91853 19.751 5.73047C19.751 4.61656 19.3408 3.54397 18.6025 2.7168L18.4502 2.55469C18.0446 2.1412 17.5605 1.8129 17.0264 1.58887C16.4923 1.36487 15.919 1.24958 15.3398 1.25Z" fill="var(--fill-0, #5D5D5D)" stroke="var(--stroke-0, #5D5D5D)" stroke-width="0.5"/>
</svg>
