<svg preserveAspectRatio="xMidYMid meet" width="24" height="24" overflow="visible" style="display: block;" viewBox="-1.146 0 24 24" fill="none" xmlns="http://www.w3.org/2000/svg">
<path id="Vector" d="M9.70926 5.99942L10.4593 5.24942M10.4593 8.99942L11.2093 8.24942M13.4593 9.74942L14.2093 8.99942M18.6643 13.5824C18.6759 13.4775 18.6654 13.3713 18.6332 13.2708C18.601 13.1703 18.548 13.0777 18.4776 12.9991C18.4072 12.9204 18.3209 12.8576 18.2246 12.8145C18.1282 12.7715 18.0238 12.7493 17.9183 12.7494H1.50026C1.39486 12.7498 1.29071 12.7723 1.19456 12.8155C1.0984 12.8587 1.01238 12.9215 0.942062 13.0001C0.871744 13.0786 0.818693 13.171 0.786343 13.2713C0.753993 13.3716 0.743063 13.4776 0.754262 13.5824C0.958401 15.1039 1.57703 16.5399 2.54248 17.7334C3.50794 18.9269 4.78302 19.8319 6.22826 20.3494C6.3698 20.4038 6.49153 20.4998 6.5774 20.6248C6.66327 20.7497 6.70924 20.8978 6.70926 21.0494V22.4994C6.70926 22.6983 6.78828 22.8891 6.92893 23.0298C7.06958 23.1704 7.26035 23.2494 7.45926 23.2494H11.9593C12.1582 23.2494 12.3489 23.1704 12.4896 23.0298C12.6302 22.8891 12.7093 22.6983 12.7093 22.4994V21.0494C12.7093 20.8978 12.7553 20.7497 12.8411 20.6248C12.927 20.4998 13.0487 20.4038 13.1903 20.3494C14.6355 19.8319 15.9106 18.9269 16.876 17.7334C17.8415 16.5399 18.4601 15.1039 18.6643 13.5824ZM20.8763 3.82542C20.9213 3.91307 20.9486 4.00873 20.9566 4.10694C20.9646 4.20514 20.9532 4.30397 20.923 4.39776C20.8929 4.49156 20.8445 4.57849 20.7807 4.65358C20.7169 4.72868 20.6389 4.79047 20.5513 4.83542L17.2163 6.54842C16.9526 6.69535 16.6621 6.78772 16.362 6.82005C16.0619 6.85237 15.7583 6.82398 15.4694 6.73657C15.1805 6.64915 14.9122 6.5045 14.6803 6.31123C14.4485 6.11796 14.2579 5.88002 14.1199 5.61156C13.9819 5.34311 13.8993 5.04964 13.8771 4.74862C13.8549 4.4476 13.8935 4.14519 13.9905 3.85939C14.0876 3.57358 14.2412 3.31023 14.4422 3.08501C14.6431 2.85979 14.8873 2.67731 15.1603 2.54842L18.4963 0.832421C18.6732 0.741835 18.8788 0.725182 19.068 0.78612C19.2572 0.847059 19.4145 0.980605 19.5053 1.15742L20.8763 3.82542Z" stroke="var(--stroke-0, #5D5D5D)" stroke-width="1.5" stroke-linecap="round" stroke-linejoin="round"/>
</svg>
