<svg preserveAspectRatio="xMidYMid meet" width="24" height="24" overflow="visible" style="display: block;" viewBox="-1.25 -1.25 24 24" fill="none" xmlns="http://www.w3.org/2000/svg">
<g id="Group">
<path id="Vector" d="M3.80943 10.492C5.72743 10.728 7.48143 9.30301 7.72643 7.31001C7.97143 5.31701 5.69043 3.39601 6.51843 0.750012C2.41543 1.34401 1.00143 4.65101 0.778427 6.45601C0.533427 8.44901 1.89143 10.256 3.80943 10.492Z" stroke="var(--stroke-0, #5D5D5D)" stroke-width="1.5" stroke-linejoin="round"/>
<path id="Vector_2" d="M5.75043 18.75C3.82543 14.074 3.52043 9.94401 3.88343 6.75001" stroke="var(--stroke-0, #5D5D5D)" stroke-width="1.5" stroke-linecap="round" stroke-linejoin="round"/>
<path id="Vector_3" d="M8.25843 16.418C9.43343 18.81 12.2714 19.47 14.5964 17.892C16.9214 16.314 17.2884 11.94 20.7504 10.415C17.0554 6.32201 12.4474 7.80001 10.3424 9.22901C8.01643 10.807 7.08343 14.026 8.25843 16.419V16.418Z" stroke="var(--stroke-0, #5D5D5D)" stroke-width="1.5" stroke-linejoin="round"/>
<path id="Vector_4" d="M4.75043 20.75C7.12843 16.654 10.0144 14.18 12.7504 12.75" stroke="var(--stroke-0, #5D5D5D)" stroke-width="1.5" stroke-linecap="round" stroke-linejoin="round"/>
</g>
</svg>
